<svg width="1200" height="630" viewBox="0 0 1200 630" fill="none" xmlns="http://www.w3.org/2000/svg">
  <rect width="1200" height="630" fill="url(#gradient)"/>
  <defs>
    <linearGradient id="gradient" x1="0%" y1="0%" x2="100%" y2="100%">
      <stop offset="0%" style="stop-color:#0052f;stop-opacity:1" />
      <stop offset="50%" style="stop-color:#7C3AED;stop-opacity:1" />
      <stop offset="100%" style="stop-color:#3B82F6;stop-opacity:1" />
    </linearGradient>
  </defs>
  
  <!-- Background pattern -->
  <circle cx="200" cy="200" r="100" fill="white" opacity="0.1"/>
  <circle cx="1000" cy="400" r="80" fill="white" opacity="0.1"/>
  <circle cx="300" cy="500" r="60" fill="white" opacity="0.1"/>
  
  <!-- Lock icon -->
  <g transform="translate(400, 200)">
    <path d="M150 200V120C150 67.2 192.2 25 245 25H255C307.8 25 350 67.2 350 120V200" stroke="white" stroke-width="20" stroke-linecap="round"/>
    <rect x="150" y="200" width="200" height="150" rx="12" fill="white"/>
    <circle cx="250" cy="275" r="25" fill="#0052f"/>
    <path d="M250 240V275" stroke="white" stroke-width="4" stroke-linecap="round"/>
    <path d="M250 275L270 295" stroke="white" stroke-width="4" stroke-linecap="round"/>
  </g>
  
  <!-- Title -->
  <text x="600" y="450" text-anchor="middle" fill="white" font-family="Arial, sans-serif" font-size="72" font-weight="bold">PASSWORD GUESSER</text>
  <text x="600" y="500" text-anchor="middle" fill="white" font-family="Arial, sans-serif" font-size="32" opacity="0.9">Test your password skills</text>
  
  <!-- Decorative elements -->
  <rect x="50" y="50" width="4" height="100" fill="white" opacity="0.3"/>
  <rect x="1146" y="480" width="4" height="100" fill="white" opacity="0.3"/>
</svg> 